HIERARCHY
ROOT Hips
{
	OFFSET 0.000000 0.000000 0.000000
	CHANNELS 6 Xposition Yposition Zposition Zrotation Yrotation Xrotation 
	JOINT LHipJoint
	{
		OFFSET 0.000000 0.000000 0.000000
		CHANNELS 3 Zrotation Yrotation Xrotation
		JOINT LeftUpLeg
		{
			OFFSET 1.363060 -1.794630 0.839290
			CHANNELS 3 Zrotation Yrotation Xrotation
			JOINT LeftLeg
			{
				OFFSET 2.448110 -6.726130 0.000000
				CHANNELS 3 Zrotation Yrotation Xrotation
				JOINT LeftFoot
				{
					OFFSET 2.562200 -7.039590 0.000000
					CHANNELS 3 Zrotation Yrotation Xrotation
					JOINT LeftToeBase
					{
						OFFSET 0.157640 -0.433110 2.322550
						CHANNELS 3 Zrotation Yrotation Xrotation
						End Site
						{
							OFFSET 0.000000 0.000000 0.000000
						}
					}
				}
			}
		}
	}
	JOINT RHipJoint
	{
		OFFSET 0.000000 0.000000 0.000000
		CHANNELS 3 Zrotation Yrotation Xrotation
		JOINT RightUpLeg
		{
			OFFSET -1.305520 -1.794630 0.839290
			CHANNELS 3 Zrotation Yrotation Xrotation
			JOINT RightLeg
			{
				OFFSET -2.542530 -6.985550 0.000000
				CHANNELS 3 Zrotation Yrotation Xrotation
				JOINT RightFoot
				{
					OFFSET -2.568260 -7.056230 0.000000
					CHANNELS 3 Zrotation Yrotation Xrotation
					JOINT RightToeBase
					{
						OFFSET -0.164730 -0.452590 2.363150
						CHANNELS 3 Zrotation Yrotation Xrotation
						End Site
						{
							OFFSET 0.000000 0.000000 0.000000
						}
					}
				}
			}
		}
	}
	JOINT LowerBack
	{
		OFFSET 0.000000 0.000000 0.000000
		CHANNELS 3 Zrotation Yrotation Xrotation
		JOINT Spine
		{
			OFFSET 0.028270 2.035590 -0.193380
			CHANNELS 3 Zrotation Yrotation Xrotation
			JOINT Spine1
			{
				OFFSET 0.056720 2.048850 -0.042750
				CHANNELS 3 Zrotation Yrotation Xrotation
				JOINT Neck
				{
					OFFSET 0.000000 0.000000 0.000000
					CHANNELS 3 Zrotation Yrotation Xrotation
					JOINT Neck1
					{
						OFFSET -0.054170 1.746240 0.172020
						CHANNELS 3 Zrotation Yrotation Xrotation
						JOINT Head
						{
							OFFSET 0.104070 1.761360 -0.123970
							CHANNELS 3 Zrotation Yrotation Xrotation
							End Site
							{
								OFFSET 0.000000 0.000000 0.000000
							}
						}
					}
				}
				JOINT LeftShoulder
				{
					OFFSET 0.000000 0.000000 0.000000
					CHANNELS 3 Zrotation Yrotation Xrotation
					JOINT LeftArm
					{
						OFFSET 3.362410 1.200890 -0.311210
						CHANNELS 3 Zrotation Yrotation Xrotation
						JOINT LeftForeArm
						{
							OFFSET 4.983000 -0.000000 -0.000000
							CHANNELS 3 Zrotation Yrotation Xrotation
							JOINT LeftHand
							{
								OFFSET 3.483560 -0.000000 -0.000000
								CHANNELS 3 Zrotation Yrotation Xrotation
								JOINT LeftFingerBase
								{
									OFFSET 0.000000 0.000000 0.000000
									CHANNELS 3 Zrotation Yrotation Xrotation
									JOINT LeftHandIndex1
									{
										OFFSET 0.715260 -0.000000 -0.000000
										CHANNELS 3 Zrotation Yrotation Xrotation
										End Site
										{
											OFFSET 0.000000 0.000000 0.000000
										}
									}
								}
								JOINT LThumb
								{
									OFFSET 0.000000 0.000000 0.000000
									CHANNELS 3 Zrotation Yrotation Xrotation
									End Site
									{
										OFFSET 0.000000 0.000000 0.000000
									}
								}
							}
						}
					}
				}
				JOINT RightShoulder
				{
					OFFSET 0.000000 0.000000 0.000000
					CHANNELS 3 Zrotation Yrotation Xrotation
					JOINT RightArm
					{
						OFFSET -3.136600 1.374050 -0.404650
						CHANNELS 3 Zrotation Yrotation Xrotation
						JOINT RightForeArm
						{
							OFFSET -5.241900 -0.000000 -0.000000
							CHANNELS 3 Zrotation Yrotation Xrotation
							JOINT RightHand
							{
								OFFSET -3.444170 -0.000000 -0.000000
								CHANNELS 3 Zrotation Yrotation Xrotation
								JOINT RightFingerBase
								{
									OFFSET 0.000000 0.000000 0.000000
									CHANNELS 3 Zrotation Yrotation Xrotation
									JOINT RightHandIndex1
									{
										OFFSET -0.622530 -0.000000 -0.000000
										CHANNELS 3 Zrotation Yrotation Xrotation
										End Site
										{
											OFFSET 0.000000 0.000000 0.000000
										}
									}
								}
								JOINT RThumb
								{
									OFFSET 0.000000 0.000000 0.000000
									CHANNELS 3 Zrotation Yrotation Xrotation
									End Site
									{
										OFFSET 0.000000 0.000000 0.000000
									}
								}
							}
						}
					}
				}
			}
		}
	}
}
MOTION
Frames: 5
Frame Time: 0.008333
-2.159718 16.736709 -0.137252 15.004014 79.471148 37.154601 -8.236342 -1.017880 -0.648702 -12.793077 -1.165018 -45.959548 -2.552188 0.773557 23.918436 0.367034 2.228181 2.296108 0.754700 -0.000000 -26.389700 12.207287 -1.478595 -3.620306 1.991725 -6.541820 -19.310097 0.352758 -4.024229 49.049671 0.245843 7.159723 6.314528 1.688300 0.000000 -78.727000 -8.230918 2.033478 6.170024 -2.897605 2.410575 -2.222311 -7.366387 2.287743 -0.880464 8.725033 8.170870 5.059961 -4.850686 -0.440287 2.877258 0.000000 0.000000 0.000000 -8.769541 -1.278964 2.700142 -58.908492 -6.168964 14.301674 -3.726879 -21.860640 -0.002298 2.806784 1.449401 0.036345 -0.079445 0.019952 0.000000 0.000000 0.000000 0.000000 0.000000 0.000000 0.000000 20.211025 8.938035 -1.171044 79.788083 26.553464 25.743429 1.621479 38.439481 -0.000347 1.269607 10.663345 0.124479 -0.032596 -0.236126 0.000000 0.000000 0.000000 0.000000 0.000000 0.000000 0.000000 
-2.040059 16.739536 -0.137577 15.744387 79.198896 37.682091 -8.143494 -0.986834 -0.803147 -13.147845 -1.219138 -45.625280 -2.527822 0.827289 25.111522 0.456612 2.592487 1.003354 0.733000 0.000000 -26.982100 12.379731 -1.351508 -3.686617 1.545607 -6.645409 -20.225822 0.065891 -4.187821 51.269985 0.055190 6.445505 8.615899 1.849400 0.000000 -77.805500 -8.445281 2.015142 6.436150 -2.931413 2.399025 -2.174321 -7.337834 2.275858 -0.928719 8.458549 8.464078 5.277327 -4.829246 -0.439822 2.925343 0.000000 0.000000 0.000000 -9.025760 -1.900238 2.755579 -58.749632 -7.116900 13.935014 -3.799257 -20.301055 -0.002803 2.686979 1.633267 0.039142 -0.079158 0.026214 0.000000 0.000000 0.000000 0.000000 0.000000 0.000000 0.000000 19.850350 9.079538 -1.175921 80.236777 26.324797 24.524509 1.639592 36.701022 -0.000738 1.153768 10.656546 0.113167 -0.031173 -0.227716 0.000000 0.000000 0.000000 0.000000 0.000000 0.000000 0.000000 
-1.923160 16.745209 -0.142399 16.145828 78.936992 37.846179 -8.079393 -0.969051 -0.952865 -13.387607 -1.294989 -45.156637 -2.496415 0.865749 26.114553 0.554203 2.989748 -0.253967 0.698700 -0.000000 -27.633600 12.505859 -1.213213 -3.766034 1.208103 -6.690815 -21.060496 -0.200321 -4.325339 53.374069 -0.158725 5.617419 10.991458 1.937100 -0.000000 -76.124700 -8.550632 2.000652 6.726220 -2.941456 2.388016 -2.118550 -7.303395 2.264978 -0.970634 8.142244 8.773388 5.497723 -4.805246 -0.439079 2.974633 0.000000 0.000000 0.000000 -9.295030 -2.516465 2.808284 -58.656510 -8.131536 13.440680 -3.862542 -18.676518 -0.003320 2.607570 1.804842 0.041839 -0.078580 0.033486 0.000000 0.000000 0.000000 0.000000 0.000000 0.000000 0.000000 19.424304 9.234779 -1.173941 80.634268 26.108201 23.222194 1.664734 34.945846 -0.000942 1.042256 10.593255 0.101657 -0.029106 -0.218597 0.000000 0.000000 0.000000 0.000000 0.000000 0.000000 0.000000 
-1.808265 16.753148 -0.151467 16.237713 78.688061 37.679248 -8.045511 -0.962447 -1.097468 -13.524873 -1.375927 -44.575173 -2.456652 0.892876 26.942615 0.657627 3.424868 -1.409814 0.657200 -0.000000 -28.257399 12.588203 -1.069312 -3.857148 0.977551 -6.696272 -21.815181 -0.437787 -4.438531 55.349948 -0.388772 4.673448 13.341821 1.921001 0.000000 -73.760600 -8.556259 1.986505 7.032948 -2.930580 2.374902 -2.052789 -7.268344 2.252884 -0.991051 7.792890 9.070956 5.700742 -4.783052 -0.438067 3.019309 0.000000 0.000000 0.000000 -9.567004 -3.052935 2.853390 -58.623858 -9.296910 12.879842 -3.916203 -16.961128 -0.003862 2.597874 1.946953 0.044837 -0.077788 0.041793 0.000000 0.000000 0.000000 0.000000 0.000000 0.000000 0.000000 18.969283 9.375378 -1.168784 80.963693 25.930281 21.913482 1.699303 33.191554 -0.000932 0.936216 10.480866 0.090249 -0.026246 -0.208876 0.000000 0.000000 0.000000 0.000000 0.000000 0.000000 0.000000 
-1.694647 16.762811 -0.164058 16.061740 78.453029 37.227890 -8.040404 -0.963319 -1.234427 -13.576831 -1.448695 -43.906983 -2.408274 0.912077 27.614996 0.764168 3.897794 -2.418662 0.614000 -0.000000 -28.780300 12.632169 -0.925751 -3.955960 0.847690 -6.678417 -22.497323 -0.642502 -4.530540 57.188902 -0.627003 3.605062 15.559945 1.774500 0.000000 -70.925300 -8.475793 1.970755 7.343234 -2.902282 2.358576 -1.981818 -7.235693 2.238053 -0.997332 7.431478 9.358120 5.892764 -4.763825 -0.436965 3.061367 0.000000 0.000000 0.000000 -9.824044 -3.542804 2.891511 -58.650104 -10.548257 12.217456 -3.954950 -15.206974 -0.004447 2.682012 2.052908 0.048535 -0.076462 0.050844 0.000000 0.000000 0.000000 0.000000 0.000000 0.000000 0.000000 18.512947 9.502790 -1.156297 81.207446 25.768185 20.612645 1.743516 31.474956 -0.000701 0.855965 10.317148 0.081142 -0.022876 -0.198785 0.000000 0.000000 0.000000 0.000000 0.000000 0.000000 0.000000 
